<?xml version="1.0" encoding="UTF-8"?>
<svg width="512" height="512" viewBox="0 0 512 512" fill="none" xmlns="http://www.w3.org/2000/svg">
  <rect width="512" height="512" rx="128" fill="#1976D2"/>
  <path d="M256 128C179.2 128 128 179.2 128 256C128 332.8 179.2 384 256 384C332.8 384 384 332.8 384 256C384 179.2 332.8 128 256 128ZM256 352C204.8 352 160 307.2 160 256C160 204.8 204.8 160 256 160C307.2 160 352 204.8 352 256C352 307.2 307.2 352 256 352Z" fill="white"/>
  <path d="M256 192C224 192 192 224 192 256C192 288 224 320 256 320C288 320 320 288 320 256C320 224 288 192 256 192Z" fill="white"/>
</svg> 